<svg width="700" height="131" viewBox="0 0 700 131" fill="none" xmlns="http://www.w3.org/2000/svg">
<mask id="mask0_2949_18916" style="mask-type:luminance" maskUnits="userSpaceOnUse" x="135" y="21" width="565" height="88">
<path d="M699.832 21.6521H135.29V108.45H699.832V21.6521Z" fill="white"/>
</mask>
<g mask="url(#mask0_2949_18916)">
<path d="M251.569 106.89H241.202L260.854 23.0649H271.111L251.581 106.884H251.569V106.89Z" fill="#212121"/>
<path d="M299.779 106.89H265.166L284.952 23.0649H295.32L277.723 97.5075H301.95L299.785 106.89H299.779Z" fill="#212121"/>
<path d="M326.929 74.4735L319.449 106.884H308.953L316.55 74.2285L310.764 23.0649H321.259L324.275 63.9105L346.82 23.0649H358.514L326.923 74.4735H326.929Z" fill="#212121"/>
<path d="M559.058 32.4475H543.865L527.448 106.89H516.953L533.369 32.4475H516.726L519.02 23.0649H561.352L559.052 32.4475H559.058Z" fill="#212121"/>
<path d="M558.716 106.89H549.425L568.006 23.0649H578.251L559.798 106.884H558.716V106.89Z" fill="#212121"/>
<path d="M626.454 46.6495L617.194 88.5955C615.947 94.4185 614.209 98.5775 611.959 101.551C608.527 106.187 602.9 108.45 595.298 108.45C582.753 108.45 575.566 102.976 575.425 93.5925C575.383 90.8585 575.713 88.3635 576.722 83.8495L585.982 41.9035C589.028 27.9886 596.172 21.6826 608.595 21.6826C621.017 21.6826 627.488 27.3892 627.629 36.8945C627.672 39.6285 627.341 42.4845 626.436 46.6375H626.448V46.6495H626.454ZM608.13 30.4841C604.515 30.4841 601.756 31.6645 599.867 34.0435C598.319 35.9455 597.524 38.4415 596.38 43.3105L587.12 85.4885C586.551 87.9845 586.227 90.3575 586.251 92.1435C586.325 97.1405 589.622 99.8685 595.285 99.8685C601.316 99.8685 604.521 96.4245 606.442 87.8675L615.818 46.1605C616.717 42.1115 617.066 40.2155 617.029 38.3135C616.956 33.1995 613.775 30.4657 608.105 30.4657H608.118L608.13 30.4841Z" fill="#212121"/>
<path d="M366.551 23.1506H383.922L388.698 71.2066C389.555 80.4736 390.038 87.9536 390.662 98.0766H390.907C394.943 88.0826 398.375 80.4976 402.895 71.2066L426.608 23.1506H444.229L434.816 106.854H423.311L429.311 56.8706C430.418 47.8366 431.642 40.1236 433.11 30.8573L432.865 30.7288C428.7 39.7626 425.03 47.7076 420.516 56.8646L396.301 106.848H381.493L376.845 56.8646C375.989 47.8306 375.377 39.7566 374.765 30.8512H374.527C372.453 39.7566 370.49 47.7136 367.915 56.8646L354.459 106.848H342.838L366.551 23.1506Z" fill="#212121"/>
<path d="M512.928 64.9566C506.714 97.1036 493.197 108.377 471.875 108.377C455.061 108.377 445.801 101.184 445.801 82.7056C445.801 77.1826 446.401 71.7816 447.752 65.0726C454.217 32.9366 467.502 21.6521 488.94 21.6521C505.626 21.6521 515.014 28.845 515.014 47.3226C515.014 52.8456 514.286 58.2466 512.941 64.9566H512.928ZM487.582 30.5331C473.698 30.5331 464.322 39.5366 459.202 65.3106C457.863 71.2986 457.129 77.1826 457.129 81.9906C457.129 94.4556 462.481 99.4956 473.086 99.4956C487.099 99.4956 496.347 90.4916 501.595 64.7176C502.818 58.7296 503.668 52.8456 503.668 48.0386C503.668 35.6766 498.316 30.5331 487.582 30.5331Z" fill="#212121"/>
<path d="M172.105 23.0467C170.117 23.0467 152.747 23.3341 152.747 23.3341L135.29 107.025H143.523V107.013C148.214 106.97 149.951 107.068 154.533 107.068C175.94 107.068 189.488 97.4646 195.726 65.4206H195.739C197.078 58.7356 197.818 53.3536 197.818 47.8486C197.818 29.426 188.87 23.0405 172.111 23.0405L172.105 23.0467ZM185.274 65.3906C180.007 91.0856 171.573 96.9566 157.505 97.0306C152.594 97.0486 151.474 97.0116 147.75 96.9566L161.108 32.3746V32.3926C165.291 32.2946 166.282 32.2576 170.123 32.2946C180.894 32.3926 187.353 36.4596 187.353 48.7786C187.353 53.5616 186.503 59.4266 185.28 65.3966L185.267 65.3846L185.274 65.3906Z" fill="#212121"/>
<path d="M689.331 23.0466L672.743 98.1316L660.425 23.0466H643.085L624.234 106.921H635.134L651.709 30.5453L663.93 106.921H681.086L699.833 23.0466H689.331Z" fill="#212121"/>
<path d="M225.177 23.0771L190.693 106.897H201.776L208.051 91.2255L212.033 81.4945L213.44 77.7336H225.073L224.7 81.4945L223.85 91.2385L222.651 106.909H233.147L239.636 23.0771H225.159H225.171H225.177ZM217.116 67.8796L230.474 30.6799L226.076 67.8796H217.116Z" fill="#212121"/>
</g>
<path d="M50.9406 0H3.396C1.5282 0 0 1.5503 0 3.4451V24.1157C0 24.977 0.339599 25.8383 1.0188 26.5273L21.3949 47.1975C22.0741 47.8865 22.9231 48.2315 23.7721 48.2315H50.9406C60.2796 48.2315 67.9206 55.9825 67.9206 65.4565C67.9206 74.9315 60.2796 82.6825 50.9406 82.6825H13.5841C11.7163 82.6825 10.1881 84.2325 10.1881 86.1275V106.798C10.1881 107.659 10.5277 108.521 11.2069 109.21L31.583 129.88C32.2626 130.569 33.1116 130.915 33.9606 130.915H50.9406C86.5986 130.915 115.465 101.63 115.465 65.4565C115.465 29.2834 86.5986 0 50.9406 0ZM6.792 11.7133L20.3761 25.4938V36.3455L6.792 22.5654V11.7133ZM74.7126 65.4565C74.7126 52.1935 64.0146 41.3415 50.9406 41.3415H27.1681V27.5608H50.9406C71.4866 27.5608 88.2966 44.6145 88.2966 65.4565C88.2966 86.2995 71.4866 103.354 50.9406 103.354H35.3186L21.7345 89.5725H50.9406C64.0146 89.5725 74.7126 78.7205 74.7126 65.4565ZM16.9801 94.3955L30.5642 108.176V119.029L16.9801 105.247V94.3955ZM50.9406 124.023H37.3566V110.243H50.9406C75.2216 110.243 95.0886 90.0895 95.0886 65.4565C95.0886 40.8245 75.2216 20.6706 50.9406 20.6706H25.1305L11.5465 6.8902H50.9406C82.6926 6.8902 108.673 33.2455 108.673 65.4565C108.673 97.6685 82.6926 124.023 50.9406 124.023Z" fill="#212121"/>
</svg>
